<svg width="20" height="12" viewBox="0 0 20 12" fill="none" xmlns="http://www.w3.org/2000/svg">
<path id="Icon / chevron.left" d="M9.93896 11.4214C10.3208 11.4214 10.6465 11.2754 10.9385 10.9722L19.5073 2.2124C19.7544 1.97656 19.8779 1.66211 19.8779 1.30273C19.8779 0.572755 19.3164 6.80768e-07 18.5752 6.80768e-07C18.2158 6.80768e-07 17.8901 0.145997 17.6431 0.393067L9.93896 8.28809L2.23486 0.393067C1.97656 0.145997 1.65088 6.80768e-07 1.2915 6.80768e-07C0.561523 6.80768e-07 0 0.572755 0 1.30273C0 1.66211 0.123535 1.97656 0.370605 2.2124L8.93945 10.9722C9.23144 11.2754 9.55713 11.4102 9.93896 11.4214Z" fill="#FCFCFC"/>
</svg>
