<svg width="20" height="12" viewBox="0 0 20 12" fill="none" xmlns="http://www.w3.org/2000/svg">
<path id="Icon / chevron.left" d="M9.93897 0C9.55713 0 9.23145 0.145996 8.93945 0.449219L0.370607 9.20898C0.123536 9.44482 1.18482e-06 9.75928 1.18482e-06 10.1187C1.18482e-06 10.8486 0.561525 11.4214 1.30274 11.4214C1.66211 11.4214 1.98779 11.2754 2.23486 11.0283L9.93897 3.1333L17.6431 11.0283C17.9014 11.2754 18.2271 11.4214 18.5864 11.4214C19.3164 11.4214 19.8779 10.8486 19.8779 10.1187C19.8779 9.75928 19.7544 9.44482 19.5073 9.20898L10.9385 0.449219C10.6465 0.145996 10.3208 0.0112305 9.93897 0Z" fill="#E88716"/>
</svg>
