<svg width="29" height="24" viewBox="0 0 29 24" fill="none" xmlns="http://www.w3.org/2000/svg">
<g id="D_-_12_x2C__waiter_x2C__resturant_x2C__serve_x2C__lunch_x2C__dinner">
<g id="Group">
<path id="Vector" d="M4.25732 14.8156C3.8009 14.4196 3.60341 14.3252 3.47817 14.3252C3.4235 14.3252 3.38262 14.3431 3.33991 14.362C2.66222 14.6669 0.971773 15.7279 0.818812 16.0229C0.818531 16.0235 0.818249 16.0241 0.817898 16.0246C0.733889 16.184 0.788417 16.3248 0.919848 16.6282C0.990348 16.7909 1.07028 16.9753 1.13268 17.2001C1.41475 18.2155 1.35762 19.4047 1.30246 20.5549C1.24603 21.7302 1.19277 22.8403 1.49721 23.6519C1.51002 23.6859 1.52289 23.6924 1.54267 23.699C1.66896 23.7415 1.99951 23.6828 2.36354 23.4908C2.7114 23.3058 3.38529 23.0156 4.16565 22.6797C5.38616 22.1542 7.65798 21.1761 7.86653 20.8435C7.9722 20.6291 7.90958 20.2804 7.67233 19.7822C7.10341 18.5878 5.09368 15.5354 4.25732 14.8156ZM4.61172 20.7268C4.24768 20.7624 3.91531 20.5274 3.8757 20.1997C3.8282 19.8649 4.09726 19.5657 4.46136 19.5302C4.83335 19.4945 5.16573 19.7296 5.20527 20.0573C5.24488 20.392 4.98364 20.6911 4.61172 20.7268Z" fill="white"/>
<path id="Vector_2" d="M19.1045 1.08783L15.4783 0L11.8519 1.08783V4.13772H19.1045V1.08783Z" fill="white"/>
<path id="Vector_3" d="M23.1864 9.47829L24.8347 6.51135H5.46228L7.11058 9.47829H23.1864Z" fill="white"/>
<path id="Vector_4" d="M27.9985 13.5798C27.5239 13.236 26.6232 13.1094 26.0266 13.1854C24.3191 13.3964 21.753 14.6298 20.3147 15.6685C20.2327 15.8122 20.1285 15.9224 20.0278 16.0039C19.6074 16.3441 18.9233 16.4722 18.1208 16.4722C16.8096 16.4722 15.1822 16.1304 13.8718 15.8133C13.7793 15.7909 13.7007 15.7719 13.6383 15.7573C13.4621 15.7163 13.3563 15.5543 13.402 15.3957C13.4477 15.2371 13.6276 15.1418 13.8038 15.183C13.8677 15.1979 13.9482 15.2173 14.043 15.2403C14.6609 15.3897 15.8113 15.668 16.9639 15.8047C18.6392 16.0033 19.315 15.7828 19.5869 15.5627C19.6428 15.5175 19.7051 15.455 19.7495 15.3611C19.7501 15.36 19.7503 15.3589 19.7509 15.3578C19.757 15.3453 19.762 15.3324 19.7672 15.3194C19.7704 15.311 19.7736 15.3027 19.7764 15.2939C19.7771 15.2921 19.7776 15.2901 19.7782 15.2882C19.8106 15.1842 19.8217 15.049 19.7905 14.8695C19.733 14.5408 19.4688 14.2278 19.0044 13.9364C16.8406 12.5779 11.543 12.2561 9.96342 12.5416C9.96293 12.5416 9.96243 12.5418 9.96194 12.5418C8.5808 12.7858 6.66612 13.7961 5.26816 14.5338C5.17845 14.5812 5.09057 14.6274 5.00494 14.6725C5.03456 14.7043 5.06482 14.7376 5.09557 14.772C5.09648 14.773 5.0974 14.774 5.09838 14.7751C5.47262 15.1942 5.92468 15.7963 6.37272 16.4423C6.37328 16.4432 6.37392 16.444 6.37448 16.4449C6.41093 16.4974 6.4473 16.5502 6.48361 16.6033C6.48537 16.6059 6.48727 16.6085 6.48902 16.6112C6.56072 16.7158 6.63206 16.8213 6.70278 16.927C6.70573 16.9314 6.70869 16.9358 6.71157 16.9402C6.74541 16.9908 6.77904 17.0414 6.8126 17.092C6.8169 17.0985 6.82112 17.1049 6.82534 17.1114C6.85897 17.1623 6.89246 17.2132 6.92567 17.264C6.92694 17.2659 6.92813 17.2678 6.9294 17.2697C6.96113 17.3183 6.99258 17.3666 7.02389 17.415C7.02882 17.4226 7.03374 17.4302 7.03867 17.4379C7.06934 17.4852 7.09967 17.5324 7.12978 17.5794C7.13612 17.5894 7.14245 17.5993 7.14878 17.6092C7.17868 17.6561 7.20844 17.7027 7.23778 17.7491C7.24222 17.7562 7.24665 17.7633 7.25108 17.7703C7.27747 17.8121 7.30357 17.8536 7.32939 17.8949C7.33544 17.9045 7.34163 17.9144 7.34769 17.9241C7.37498 17.9678 7.40193 18.0111 7.42853 18.0542C7.43598 18.0662 7.44337 18.0782 7.45083 18.0902C7.47707 18.1328 7.50304 18.1751 7.52858 18.2169C7.5347 18.2269 7.54068 18.2367 7.54673 18.2467C7.56875 18.2829 7.59049 18.3187 7.61195 18.3542C7.61822 18.3646 7.62462 18.3752 7.63081 18.3855C7.65494 18.4256 7.67858 18.4651 7.70194 18.5042C7.70912 18.5162 7.7163 18.5283 7.72333 18.5402C7.74648 18.5792 7.76921 18.6177 7.79144 18.6557C7.79693 18.665 7.80227 18.6742 7.80762 18.6834C7.82718 18.7168 7.84632 18.7498 7.8651 18.7823C7.87017 18.7911 7.87538 18.8001 7.88044 18.8089C7.90148 18.8453 7.92188 18.881 7.94187 18.9163C7.94778 18.9268 7.95369 18.9371 7.95953 18.9474C7.97923 18.9822 7.99843 19.0165 8.01701 19.0499C8.02158 19.0582 8.02601 19.0661 8.03052 19.0744C8.04747 19.1049 8.06394 19.135 8.07991 19.1643C8.08308 19.1701 8.08638 19.1761 8.08948 19.1818C8.10707 19.2143 8.12388 19.2457 8.14021 19.2764C8.14246 19.2806 8.14499 19.2852 8.14724 19.2895C9.46697 18.8529 10.5073 18.6945 11.398 18.6945C12.539 18.6945 13.4342 18.9544 14.3575 19.2224C15.4329 19.5346 16.5454 19.8577 18.1677 19.7471C19.2773 19.673 21.8261 18.6769 24.2285 17.3784C27.1048 15.8239 28.373 14.5981 28.3342 14.1169C28.3168 13.9066 28.2069 13.7306 27.9985 13.5798Z" fill="white"/>
<path id="Vector_5" d="M8.88495 1.46741H7.56628V2.65421H8.88495V1.46741Z" fill="white"/>
<path id="Vector_6" d="M6.90699 1.46741H5.58832V2.65421H6.90699V1.46741Z" fill="white"/>
<path id="Vector_7" d="M4.92902 1.46741H3.61035V2.65421H4.92902V1.46741Z" fill="white"/>
<path id="Vector_8" d="M27.3461 1.46741H26.0275V2.65421H27.3461V1.46741Z" fill="white"/>
<path id="Vector_9" d="M25.3683 1.46741H24.0497V2.65421H25.3683V1.46741Z" fill="white"/>
<path id="Vector_10" d="M23.3902 1.46741H22.0715V2.65421H23.3902V1.46741Z" fill="white"/>
</g>
</g>
</svg>
