<svg width="24" height="25" viewBox="0 0 24 25" fill="none" xmlns="http://www.w3.org/2000/svg">
<g id="icons/help" clip-path="url(#clip0_16_856)">
<path id="Vector" d="M24 12.5C24 15.6826 22.7357 18.7348 20.4853 20.9853C18.2348 23.2357 15.1826 24.5 12 24.5C8.8174 24.5 5.76516 23.2357 3.51472 20.9853C1.26428 18.7348 0 15.6826 0 12.5C0 9.3174 1.26428 6.26516 3.51472 4.01472C5.76516 1.76428 8.8174 0.5 12 0.5C15.1826 0.5 18.2348 1.76428 20.4853 4.01472C22.7357 6.26516 24 9.3174 24 12.5ZM8.244 9.5495H9.4815C9.6885 9.5495 9.8535 9.38 9.8805 9.1745C10.0155 8.1905 10.6905 7.4735 11.8935 7.4735C12.9225 7.4735 13.8645 7.988 13.8645 9.2255C13.8645 10.178 13.3035 10.616 12.417 11.282C11.4075 12.0155 10.608 12.872 10.665 14.2625L10.6695 14.588C10.6711 14.6864 10.7113 14.7803 10.7814 14.8493C10.8516 14.9183 10.9461 14.957 11.0445 14.957H12.261C12.3605 14.957 12.4558 14.9175 12.5262 14.8472C12.5965 14.7768 12.636 14.6815 12.636 14.582V14.4245C12.636 13.3475 13.0455 13.034 14.151 12.1955C15.0645 11.501 16.017 10.73 16.017 9.1115C16.017 6.845 14.103 5.75 12.0075 5.75C10.107 5.75 8.025 6.635 7.8825 9.179C7.88045 9.22744 7.88832 9.27579 7.90565 9.32107C7.92297 9.36636 7.94937 9.40762 7.98323 9.44232C8.01709 9.47703 8.05769 9.50444 8.10254 9.52287C8.14738 9.5413 8.19552 9.55036 8.244 9.5495ZM11.7315 19.214C12.6465 19.214 13.275 18.623 13.275 17.8235C13.275 16.9955 12.645 16.4135 11.7315 16.4135C10.8555 16.4135 10.218 16.9955 10.218 17.8235C10.218 18.623 10.8555 19.214 11.733 19.214H11.7315Z" fill="white"/>
</g>
<defs>
<clipPath id="clip0_16_856">
<rect width="24" height="24" fill="white" transform="translate(0 0.5)"/>
</clipPath>
</defs>
</svg>
