<svg xmlns="http://www.w3.org/2000/svg" viewBox="0 0 24 24" id="service">
    <path d="M21.48 14.71a2.31 2.31 0 0 0-3.09-1L15 15.38A2.5 2.5 0 0 0 12.5 13H8a.94.94 0 0 0-.37.07l-5 2A1 1 0 0 0 2 16v5a1 1 0 0 0 1 1h10a1 1 0 0 0 .51-.14l7.34-4.34a.7.7 0 0 0 .19-.15 2.3 2.3 0 0 0 .44-2.66Zm-1.8 1.18L12.73 20H4v-3.32L8.19 15h4.31a.5.5 0 0 1 0 1H10a1 1 0 0 0 0 2h4a1 1 0 0 0 .45-.11l4.84-2.41a.29.29 0 0 1 .4.13.31.31 0 0 1-.01.28ZM8 8h.66a3.42 3.42 0 0 0 .27.65l-.47.47a1 1 0 0 0 0 1.42 1 1 0 0 0 1.42 0l.47-.47a3.42 3.42 0 0 0 .65.27V11a1 1 0 0 0 2 0v-.66a3.42 3.42 0 0 0 .65-.27l.47.47a1 1 0 0 0 1.42 0 1 1 0 0 0 0-1.42l-.47-.47a3.42 3.42 0 0 0 .27-.65H16a1 1 0 0 0 0-2h-.66a3.42 3.42 0 0 0-.27-.65l.47-.47a1 1 0 0 0-1.42-1.42l-.47.47a3.42 3.42 0 0 0-.65-.27V3a1 1 0 0 0-2 0v.66a3.42 3.42 0 0 0-.65.27l-.47-.47a1 1 0 0 0-1.42 1.42l.47.47a3.42 3.42 0 0 0-.27.65H8a1 1 0 0 0 0 2Zm4-2.5A1.5 1.5 0 1 1 10.5 7 1.5 1.5 0 0 1 12 5.5Z"></path></svg>