<svg width="24" height="24" viewBox="0 0 24 24" fill="none" xmlns="http://www.w3.org/2000/svg">
<g id="travel-bus-svgrepo-com 1" clip-path="url(#clip0_21_1025)">
<path id="Vector" d="M4.36003 20.59H1.50003V11.05C1.4987 10.7988 1.5472 10.5498 1.64272 10.3175C1.73823 10.0852 1.87887 9.87407 2.0565 9.69645C2.23412 9.51883 2.44521 9.37819 2.67754 9.28267C2.90987 9.18715 3.15883 9.13865 3.41003 9.13998H19.21C19.6064 9.14413 19.9917 9.27151 20.3124 9.50444C20.6331 9.73738 20.8734 10.0643 21 10.44L22.47 14.86V20.59H19.64" stroke="white" stroke-width="1.91" stroke-miterlimit="10"/>
<path id="Vector_2" d="M15.82 20.59H8.17999" stroke="white" stroke-width="1.91" stroke-miterlimit="10"/>
<path id="Vector_3" d="M6.26999 22.5C7.32485 22.5 8.17999 21.6449 8.17999 20.59C8.17999 19.5351 7.32485 18.68 6.26999 18.68C5.21512 18.68 4.35999 19.5351 4.35999 20.59C4.35999 21.6449 5.21512 22.5 6.26999 22.5Z" stroke="white" stroke-width="1.91" stroke-miterlimit="10"/>
<path id="Vector_4" d="M17.73 22.5C18.7849 22.5 19.64 21.6449 19.64 20.59C19.64 19.5351 18.7849 18.68 17.73 18.68C16.6751 18.68 15.82 19.5351 15.82 20.59C15.82 21.6449 16.6751 22.5 17.73 22.5Z" stroke="white" stroke-width="1.91" stroke-miterlimit="10"/>
<path id="Vector_5" d="M22.5 14.86H4.35999" stroke="white" stroke-width="1.91" stroke-miterlimit="10"/>
<path id="Vector_6" d="M12 12V14.86" stroke="white" stroke-width="1.91" stroke-miterlimit="10"/>
<path id="Vector_7" d="M16.77 12V14.86" stroke="white" stroke-width="1.91" stroke-miterlimit="10"/>
<path id="Vector_8" d="M7.22998 12V14.86" stroke="white" stroke-width="1.91" stroke-miterlimit="10"/>
<path id="Vector_9" d="M6.11003 1.5H16C16.7161 1.5 17.4029 1.78446 17.9092 2.29081C18.4156 2.79716 18.7 3.48392 18.7 4.2V5.32H3.41003V4.2C3.41003 3.48392 3.6945 2.79716 4.20085 2.29081C4.70719 1.78446 5.39395 1.5 6.11003 1.5Z" stroke="white" stroke-width="1.91" stroke-miterlimit="10"/>
<path id="Vector_10" d="M7.22998 1.5V5.32" stroke="white" stroke-width="1.91" stroke-miterlimit="10"/>
<path id="Vector_11" d="M11.05 1.5V5.32" stroke="white" stroke-width="1.91" stroke-miterlimit="10"/>
<path id="Vector_12" d="M14.86 1.5V5.32" stroke="white" stroke-width="1.91" stroke-miterlimit="10"/>
<path id="Vector_13" d="M1.5 5.32001H20.59" stroke="#FCFCFC" stroke-width="1.91" stroke-miterlimit="10"/>
<path id="Vector_14" d="M4.35999 9.14001V5.32001" stroke="white" stroke-width="1.91" stroke-miterlimit="10"/>
<path id="Vector_15" d="M17.73 9.14001V5.32001" stroke="white" stroke-width="1.91" stroke-miterlimit="10"/>
</g>
<defs>
<clipPath id="clip0_21_1025">
<rect width="24" height="24" fill="white"/>
</clipPath>
</defs>
</svg>
