<svg width="24" height="24" viewBox="0 0 24 24" fill="none" xmlns="http://www.w3.org/2000/svg">
<g id="103796_view_icon 1" clip-path="url(#clip0_50_120)">
<g id="view">
<path id="Vector" d="M12 16.5C14.4853 16.5 16.5 14.4853 16.5 12C16.5 9.51472 14.4853 7.5 12 7.5C9.51472 7.5 7.5 9.51472 7.5 12C7.5 14.4853 9.51472 16.5 12 16.5Z" fill="#002059"/>
<path id="Vector_2" d="M12 4.5C4.5 4.5 0 11.9535 0 11.9535C0 11.9535 4.5 19.5 12 19.5C19.5 19.5 24 12 24 12C24 12 19.5 4.5 12 4.5ZM12 18C5.4375 18 1.875 12 1.875 12C1.875 12 5.4375 6 12 6C18.5625 6 22.125 12 22.125 12C22.125 12 18.5625 18 12 18Z" fill="#002059"/>
</g>
</g>
<defs>
<clipPath id="clip0_50_120">
<rect width="24" height="24" fill="white"/>
</clipPath>
</defs>
</svg>
