<svg width="30" height="22" viewBox="0 0 30 22" fill="none" xmlns="http://www.w3.org/2000/svg">
<g id="Layer_4">
<path id="Vector" d="M28.1289 6.86888H27.1142C26.3336 6.86888 25.7023 7.43654 25.7023 8.13908C25.7023 8.22142 25.7384 8.29292 25.7552 8.37092L25.7438 8.37525L22.0713 0.798958L22.0689 0.801125C21.86 0.332583 21.3569 0 20.7617 0H9.54796C9.03698 0 8.60967 0.255666 8.36171 0.622916C8.3587 0.621833 8.33884 0.618042 8.33884 0.618042L8.28888 0.719333C8.26902 0.755625 8.25157 0.788666 8.23592 0.826042L4.61458 8.13529C4.61277 7.43546 3.98263 6.86888 3.20384 6.86888H2.18911C1.40911 6.86888 0.777771 7.43654 0.777771 8.13908C0.777771 8.74358 1.25745 9.22621 1.88638 9.35458L1.89782 9.38275L3.88032 9.65575C3.85143 9.74729 3.82194 9.84154 3.82194 9.94338V14.9457V15.0654V16.7326C3.82194 17.3008 4.24323 17.765 4.81439 17.9259V20.3288C4.81439 21.0313 5.44694 21.599 6.22634 21.599H7.66717C8.44657 21.599 9.07851 21.0313 9.07851 20.3288V18.0034H21.2618V20.3288C21.2618 21.0313 21.8943 21.599 22.6731 21.599H24.1152C24.894 21.599 25.5271 21.0313 25.5271 20.3288V17.9064C26.0435 17.7174 26.41 17.2656 26.41 16.7326V15.0654V14.9457V9.94338C26.41 9.84371 26.3805 9.75704 26.3535 9.66821L28.4226 9.38275L28.4335 9.35458C29.0624 9.22621 29.5421 8.74358 29.5421 8.13908C29.5409 7.43654 28.9089 6.86888 28.1289 6.86888ZM6.40388 8.44729L9.40231 1.98196L9.42578 1.98142C9.5937 1.44788 10.1155 1.04975 10.7619 1.04975H19.4683C20.1153 1.04975 20.6359 1.44625 20.8044 1.97979L20.8267 1.98196L23.804 8.44729H6.40388Z" fill="white"/>
</g>
</svg>
