<svg width="24" height="24" viewBox="0 0 24 24" fill="none" xmlns="http://www.w3.org/2000/svg">
<g id="2849819_multimedia_construction_building_home_house_icon 1">
<g id="1">
<path id="Vector" d="M18.5387 21.0938H5.89697C5.71049 21.0938 5.53165 21.0197 5.39979 20.8878C5.26793 20.7559 5.19385 20.5771 5.19385 20.3906V9.23438C5.19385 9.04789 5.26793 8.86905 5.39979 8.73719C5.53165 8.60533 5.71049 8.53125 5.89697 8.53125C6.08345 8.53125 6.2623 8.60533 6.39416 8.73719C6.52602 8.86905 6.6001 9.04789 6.6001 9.23438V19.6875H17.8356V9.23438C17.8356 9.04789 17.9096 8.86905 18.0415 8.73719C18.1734 8.60533 18.3522 8.53125 18.5387 8.53125C18.7252 8.53125 18.904 8.60533 19.0359 8.73719C19.1677 8.86905 19.2418 9.04789 19.2418 9.23438V20.3906C19.2418 20.5771 19.1677 20.7559 19.0359 20.8878C18.904 21.0197 18.7252 21.0938 18.5387 21.0938Z" fill="#002059"/>
<path id="Vector_2" d="M20.8645 12.2649C20.7722 12.2649 20.6807 12.2468 20.5954 12.2115C20.5101 12.1761 20.4325 12.1244 20.3672 12.0591L12.2175 3.9094L4.06781 12.0591C3.9352 12.1872 3.75759 12.258 3.57324 12.2564C3.38888 12.2548 3.21253 12.1809 3.08216 12.0505C2.9518 11.9202 2.87785 11.7438 2.87625 11.5595C2.87465 11.3751 2.94552 11.1975 3.0736 11.0649L11.7188 2.41784C11.8506 2.28603 12.0294 2.21198 12.2159 2.21198C12.4023 2.21198 12.5811 2.28603 12.713 2.41784L21.3619 11.0649C21.4601 11.1632 21.527 11.2885 21.5541 11.4249C21.5811 11.5612 21.5672 11.7025 21.5139 11.831C21.4607 11.9594 21.3706 12.0691 21.255 12.1464C21.1394 12.2236 21.0035 12.2648 20.8645 12.2649Z" fill="#002059"/>
<path id="Vector_3" d="M14.2571 21.0938H10.179C9.99247 21.0938 9.81363 21.0197 9.68177 20.8878C9.54991 20.756 9.47583 20.5771 9.47583 20.3906V14.3194C9.47583 14.1329 9.54991 13.9541 9.68177 13.8222C9.81363 13.6904 9.99247 13.6163 10.179 13.6163H14.2571C14.4436 13.6163 14.6224 13.6904 14.7543 13.8222C14.8861 13.9541 14.9602 14.1329 14.9602 14.3194V20.3906C14.9602 20.5771 14.8861 20.756 14.7543 20.8878C14.6224 21.0197 14.4436 21.0938 14.2571 21.0938ZM10.8821 19.6875H13.554V15.0225H10.8821V19.6875Z" fill="#002059"/>
</g>
</g>
</svg>
