<svg width="28" height="24" viewBox="0 0 28 24" fill="none" xmlns="http://www.w3.org/2000/svg">
<path id="Vector" d="M25.7778 21V3C26.6981 3 27.4444 2.32828 27.4444 1.5C27.4444 0.671719 26.6981 0 25.7778 0H2.44444C1.52413 0 0.777771 0.671719 0.777771 1.5C0.777771 2.32828 1.52413 3 2.44444 3V21C1.52413 21 0.777771 21.6717 0.777771 22.5C0.777771 23.3283 1.52413 24 2.44444 24H11.6111V19.5H16.6111V24H25.7778C26.6981 24 27.4444 23.3283 27.4444 22.5C27.4444 21.6703 26.6996 21 25.7778 21ZM12.4444 5.1C12.4444 4.80117 12.7765 4.50234 13.1085 4.50234H15.1137C15.4444 4.50047 15.7778 4.8 15.7778 5.1V6.90469C15.7778 7.20352 15.4457 7.50234 15.1137 7.50234H13.1085C12.7778 7.5 12.4444 7.2 12.4444 6.90469V5.1ZM12.4444 9.6C12.4444 9.30117 12.7765 9.00234 13.1085 9.00234H15.1137C15.4444 9 15.7778 9.3 15.7778 9.6V11.4047C15.7778 11.7035 15.4457 12.0023 15.1137 12.0023H13.1085C12.7778 12 12.4444 11.7 12.4444 11.4047V9.6ZM5.77777 5.1C5.77777 4.80117 6.1098 4.50234 6.44183 4.50234H8.44704C8.77777 4.50094 9.1111 4.8 9.1111 5.1V6.90469C9.1111 7.20352 8.77907 7.50234 8.44704 7.50234H6.44183C6.1111 7.5 5.77777 7.2 5.77777 6.90469V5.1ZM8.44965 12H6.44444C6.1111 12 5.77777 11.7 5.77777 11.4047V9.6C5.77777 9.30117 6.1098 9.00234 6.44183 9.00234H8.44704C8.77777 9 9.1111 9.3 9.1111 9.6V11.4047C9.1111 11.7 8.77777 12 8.44965 12ZM9.1111 18C9.1111 15.5156 11.3507 13.5 14.1111 13.5C16.8715 13.5 19.1111 15.5156 19.1111 18H9.1111ZM22.4444 11.4047C22.4444 11.7035 22.1124 12.0023 21.7804 12.0023H19.7752C19.4444 12 19.1111 11.7 19.1111 11.4047V9.6C19.1111 9.30117 19.4431 9.00234 19.7752 9.00234H21.7804C22.1111 9 22.4444 9.3 22.4444 9.6V11.4047ZM22.4444 6.90469C22.4444 7.20352 22.1124 7.50234 21.7804 7.50234H19.7752C19.4444 7.5 19.1111 7.2 19.1111 6.90469V5.1C19.1111 4.80117 19.4431 4.50234 19.7752 4.50234H21.7804C22.1111 4.50094 22.4444 4.8 22.4444 5.1V6.90469Z" fill="white"/>
</svg>
