<svg width="18" height="17" viewBox="0 0 18 17" fill="none" xmlns="http://www.w3.org/2000/svg">
<path id="Vector" fill-rule="evenodd" clip-rule="evenodd" d="M18 8.50005C18 8.79839 17.8815 9.08451 17.6705 9.29546C17.4596 9.50642 17.1735 9.62493 16.8751 9.62493H3.84233L8.67254 14.4529C8.77713 14.5575 8.86009 14.6816 8.91669 14.8183C8.97329 14.9549 9.00243 15.1014 9.00243 15.2493C9.00243 15.3972 8.97329 15.5437 8.91669 15.6803C8.86009 15.817 8.77713 15.9411 8.67254 16.0457C8.56796 16.1503 8.4438 16.2333 8.30715 16.2899C8.1705 16.3465 8.02404 16.3756 7.87613 16.3756C7.72822 16.3756 7.58176 16.3465 7.44512 16.2899C7.30847 16.2333 7.18431 16.1503 7.07972 16.0457L0.330474 9.29646C0.225718 9.19197 0.142606 9.06784 0.0858978 8.93118C0.0291896 8.79452 0 8.64801 0 8.50005C0 8.35209 0.0291896 8.20559 0.0858978 8.06893C0.142606 7.93226 0.225718 7.80813 0.330474 7.70364L7.07972 0.954396C7.29094 0.743175 7.57742 0.624512 7.87613 0.624512C8.17484 0.624512 8.46132 0.743175 8.67254 0.954396C8.88376 1.16562 9.00243 1.4521 9.00243 1.75081C9.00243 2.04952 8.88376 2.336 8.67254 2.54722L3.84233 7.37518H16.8751C17.1735 7.37518 17.4596 7.49369 17.6705 7.70465C17.8815 7.9156 18 8.20172 18 8.50005Z" fill="white"/>
</svg>
